<svg width="103" height="103" viewBox="0 0 103 103" fill="none" xmlns="http://www.w3.org/2000/svg">
<circle cx="51.5" cy="51.5" r="51.5" fill="#254D4D"/>
<g filter="url(#filter0_d_2_79)">
<path d="M51.4858 70.7128L73.5261 51.7909L82.9719 59.9003L60.9317 78.8222L51.4858 70.7128Z" stroke="white" stroke-width="2" stroke-linecap="round" stroke-linejoin="round"/>
<path d="M70.3777 54.4941L65.6548 34.2206L20 24.7596L31.0201 63.955L54.6347 68.0097L70.3777 54.4941Z" stroke="white" stroke-width="2" stroke-linecap="round" stroke-linejoin="round"/>
<path d="M20 24.7596L43.8853 45.2656" stroke="white" stroke-width="2" stroke-linecap="round" stroke-linejoin="round"/>
<path d="M48.3373 54.4941C51.8152 54.4941 54.6345 52.0737 54.6345 49.0879C54.6345 46.1021 51.8152 43.6817 48.3373 43.6817C44.8594 43.6817 42.04 46.1021 42.04 49.0879C42.04 52.0737 44.8594 54.4941 48.3373 54.4941Z" stroke="white" stroke-width="2" stroke-linecap="round" stroke-linejoin="round"/>
</g>
<defs>
<filter id="filter0_d_2_79" x="15" y="23.7596" width="72.9719" height="64.0626" filterUnits="userSpaceOnUse" color-interpolation-filters="sRGB">
<feFlood flood-opacity="0" result="BackgroundImageFix"/>
<feColorMatrix in="SourceAlpha" type="matrix" values="0 0 0 0 0 0 0 0 0 0 0 0 0 0 0 0 0 0 127 0" result="hardAlpha"/>
<feOffset dy="4"/>
<feGaussianBlur stdDeviation="2"/>
<feComposite in2="hardAlpha" operator="out"/>
<feColorMatrix type="matrix" values="0 0 0 0 0 0 0 0 0 0 0 0 0 0 0 0 0 0 0.25 0"/>
<feBlend mode="normal" in2="BackgroundImageFix" result="effect1_dropShadow_2_79"/>
<feBlend mode="normal" in="SourceGraphic" in2="effect1_dropShadow_2_79" result="shape"/>
</filter>
</defs>
</svg>
